<?xml version="1.0" encoding="utf-8"?>
<!-- Generator: Adobe Illustrator 27.2.0, SVG Export Plug-In . SVG Version: 6.00 Build 0)  -->
<svg version="1.1" id="Capa_1" xmlns="http://www.w3.org/2000/svg" xmlns:xlink="http://www.w3.org/1999/xlink" x="0px" y="0px"
	 viewBox="0 0 250.21 217.11" style="enable-background:new 0 0 250.21 217.11;" xml:space="preserve">
<style type="text/css">
	.st0{fill:none;stroke:#88409C;stroke-miterlimit:10;}
	.st1{fill:#88409C;}
</style>
<path class="st0" d="M54.84,120.49c0,0,8.61,0.56,13.08-1.12c4.47-1.68,13.53-6.26,18.89-11.07c5.37-4.81,14.09-12.97,12.41-19.01
	c-1.68-6.04-11.07-0.45-13.19,7.27c-2.12,7.71-1.23,8.16-0.56,6.15c0.67-2.01-1.45-11.85-7.83-11.29c-3.19,0.28-3.69,3.72-3.4,7.09
	c0.39,4.53,2.39,8.78,5.54,12.06c2.25,2.35,5.29,4.72,8.81,5.45c7.6,1.57,13.86,2.35,16.99,2.24c3.13-0.11,14.65-0.89,25.49-4.58
	c10.84-3.69,23.37-5.48,28.62-6.37c5.25-0.89,35.21-4.42,46.17,0.11c10.82,4.47,9.28,3.8,9.28,3.8"/>
</svg>
